<svg xmlns="http://www.w3.org/2000/svg" viewBox="0 0 32.461 32.461" class="design-iconfont">
  <path d="M96.059,81.99a7.1,7.1,0,1,0,7.1,7.1A7.1,7.1,0,0,0,96.059,81.99Zm0,12.173a5.072,5.072,0,1,1,5.069-5.072A5.071,5.071,0,0,1,96.059,94.163Zm11.174.441a12.068,12.068,0,0,0,1.285-5.406,12.46,12.46,0,0,0-24.917,0A12.067,12.067,0,0,0,84.885,94.6l-5.057,8.634s3.207.643,6.461,1.313c2.169,2.417,4.328,4.827,4.328,4.827l4.649-7.939c.263.016.525.039.792.039s.529-.023.792-.039l4.65,7.939s2.159-2.411,4.328-4.827c3.254-.67,6.461-1.313,6.461-1.313ZM90.377,106.233s-1.558-1.746-3.021-3.17c-2.076-.59-4.708-1.192-4.708-1.192l3.207-5.554a14.271,14.271,0,0,0,7.478,4.791Zm5.682-6.722a10.374,10.374,0,0,1-10.4-10.155c0-5.608,4.8-10.691,10.4-10.691a10.423,10.423,0,0,1,0,20.846Zm8.972,3.284c-1.464,1.424-3.289,3.438-3.289,3.438l-2.956-5.125A13.563,13.563,0,0,0,106,96.317l3.476,5.554A38.617,38.617,0,0,0,105.031,102.8Z" transform="translate(-79.829 -76.918)" fill="#686868"/>
</svg>
