<svg xmlns="http://www.w3.org/2000/svg" viewBox="0 0 30.039 31.539" class="design-iconfont">
  <g fill="#686868">
    <path d="M92.659,76.51H71.436a4.305,4.305,0,0,1-4.408-4.185V49.156a4.3,4.3,0,0,1,4.408-4.179H75.2v1.738H71.436a2.567,2.567,0,0,0-2.67,2.441V72.325a2.565,2.565,0,0,0,2.67,2.441H92.662a2.567,2.567,0,0,0,2.67-2.441V49.156a2.565,2.565,0,0,0-2.67-2.441h-3.51V44.977h3.507a4.3,4.3,0,0,1,4.408,4.179V72.325a4.306,4.306,0,0,1-4.408,4.185Z" transform="translate(-67.028 -44.971)"/>
    <path d="M262.484,46.543H257.03a.869.869,0,1,1,0-1.738h5.453a.869.869,0,1,1,0,1.738Zm5.755,9.688H251.6a.869.869,0,1,1,0-1.738h16.638a.869.869,0,1,1,0,1.738Zm0,5.705H251.6a.869.869,0,0,1,0-1.738h16.638a.869.869,0,0,1,0,1.738Zm0,5.7H251.6a.869.869,0,0,1,0-1.738h16.638a.869.869,0,1,1,0,1.738Z" transform="translate(-244.531 -44.806)"/>
  </g>
</svg>
