<svg xmlns="http://www.w3.org/2000/svg" viewBox="0 0 32.421 31.925" class="design-iconfont">
  <g fill="#686868">
    <path d="M88.764,497.56H61.313a2.566,2.566,0,0,1-1.882-.888l-.036-.036a2.445,2.445,0,0,1-.426-2.06,16.8,16.8,0,0,1,14.844-13.6,2.443,2.443,0,0,1,.462-.071h1.349l-.178,1.776h-.71a1.765,1.765,0,0,0-.639.071h-.107a14.874,14.874,0,0,0-13.353,12.216.655.655,0,0,0,.142.6l.036.071a.6.6,0,0,0,.5.213H88.8a.6.6,0,0,0,.5-.213.794.794,0,0,0,.178-.675A14.842,14.842,0,0,0,82.23,484.7l-.035-.035c-.284-.178-.639-.355-.959-.533-.107-.071-.213-.107-.32-.178l-.5-.213.71-1.6.5.213c.355.142.71.355,1.03.5l.426.213a16.836,16.836,0,0,1,8.168,11.506,2.337,2.337,0,0,1-.533,2.1,2.647,2.647,0,0,1-1.953.888Z" transform="translate(-58.895 -465.634)"/>
    <path d="M290.453,84.606a8.168,8.168,0,1,1,8.168-8.168,8.215,8.215,0,0,1-8.168,8.168Zm0-15.057a6.889,6.889,0,1,0,6.889,6.889A6.873,6.873,0,0,0,290.453,69.549Z" transform="translate(-274.114 -68.093)"/>
    <path d="M172.593,80.106a8.345,8.345,0,1,1,8.345-8.345,8.336,8.336,0,0,1-8.345,8.345Zm0-16.335a7.99,7.99,0,1,0,7.99,7.99A8,8,0,0,0,172.593,63.771Zm0,15.057a7.067,7.067,0,1,1,7.067-7.067A7.063,7.063,0,0,1,172.593,78.828Zm0-13.779a6.712,6.712,0,1,0,6.712,6.712A6.729,6.729,0,0,0,172.593,65.049Zm-10.9,24.4a.659.659,0,0,1-.249-.071.529.529,0,0,1-.213-.71c3.125-6.073,9.908-7.209,10.192-7.244a.523.523,0,0,1,.178,1.03c-.071,0-6.534,1.1-9.411,6.676A.536.536,0,0,1,161.691,89.446Zm-1.207,3.09a.546.546,0,0,1-.533-.533,4.385,4.385,0,0,1,.781-2.237.542.542,0,0,1,.923.568,3.656,3.656,0,0,0-.6,1.669A.579.579,0,0,1,160.483,92.535Z" transform="translate(-156.254 -63.416)"/>
  </g>
</svg>
